<svg width="98" height="98" xmlns="http://www.w3.org/2000/svg" xmlns:xlink="http://www.w3.org/1999/xlink" overflow="hidden"><defs><clipPath id="clip0"><rect x="547" y="298" width="98" height="98"/></clipPath><clipPath id="clip1"><rect x="548" y="299" width="96" height="96"/></clipPath><clipPath id="clip2"><rect x="548" y="299" width="96" height="96"/></clipPath><clipPath id="clip3"><rect x="548" y="299" width="102" height="102"/></clipPath><clipPath id="clip4"><rect x="548" y="299" width="102" height="102"/></clipPath></defs><g clip-path="url(#clip0)" transform="translate(-547 -298)"><g clip-path="url(#clip1)"><g clip-path="url(#clip2)"><g clip-path="url(#clip3)"><g clip-path="url(#clip4)"><path d="M4472.25 778.246 4397.62 778.246C4391.71 778.246 4386.96 782.99 4386.96 788.907L4386.96 863.534C4386.96 869.424 4391.74 874.195 4397.62 874.195L4472.25 874.195C4478.14 874.195 4482.91 869.424 4482.91 863.534L4482.91 788.907C4482.91 782.99 4478.11 778.246 4472.25 778.246M4472.25 788.907 4472.25 863.534 4397.62 863.534 4397.62 788.907 4472.25 788.907Z" fill-rule="evenodd" transform="matrix(1.00207 0 0 1 -3848.05 -479.246)"/></g></g></g></g></g></svg>