<?xml version="1.0" encoding="UTF-8" standalone="no"?><svg xmlns:svg="http://www.w3.org/2000/svg" xmlns="http://www.w3.org/2000/svg" xmlns:xlink="http://www.w3.org/1999/xlink" version="1.0" width="162px" height="24px" viewBox="0 0 128 19" xml:space="preserve"><path fill="#d60000" d="M0.8,2.375H15.2v14.25H0.8V2.375Zm16,0H31.2v14.25H16.8V2.375Zm16,0H47.2v14.25H32.8V2.375Zm16,0H63.2v14.25H48.8V2.375Zm16,0H79.2v14.25H64.8V2.375Zm16,0H95.2v14.25H80.8V2.375Zm16,0h14.4v14.25H96.8V2.375Zm16,0h14.4v14.25H112.8V2.375Z"/><g><path fill="#f5c1c1" d="M128.8,2.375h14.4v14.25H128.8V2.375Z"/><path fill="#f5c1c1" d="M144.8,2.375h14.4v14.25H144.8V2.375Z"/><path fill="#ee9494" d="M160.8,2.375h14.4v14.25H160.8V2.375Z"/><path fill="#e66262" d="M176.8,2.375h14.4v14.25H176.8V2.375Z"/><animateTransform attributeName="transform" type="translate" values="0 0;0 0;0 0;0 0;0 0;0 0;0 0;0 0;0 0;0 0;0 0;0 0;-16 0;-32 0;-48 0;-64 0;-80 0;-96 0;-112 0;-128 0;-144 0;-160 0;-176 0;-192 0" calcMode="discrete" dur="2160ms" repeatCount="indefinite"/></g><g><path fill="#f5c1c1" d="M-15.2,2.375H-0.8v14.25H-15.2V2.375Z"/><path fill="#f5c1c1" d="M-31.2,2.375h14.4v14.25H-31.2V2.375Z"/><path fill="#ee9494" d="M-47.2,2.375h14.4v14.25H-47.2V2.375Z"/><path fill="#e66262" d="M-63.2,2.375h14.4v14.25H-63.2V2.375Z"/><animateTransform attributeName="transform" type="translate" values="16 0;32 0;48 0;64 0;80 0;96 0;112 0;128 0;144 0;160 0;176 0;192 0;0 0;0 0;0 0;0 0;0 0;0 0;0 0;0 0;0 0;0 0;0 0;0 0" calcMode="discrete" dur="2160ms" repeatCount="indefinite"/></g>
</svg>
