<?xml version="1.0" encoding="UTF-8"?>
<!-- Generator: visioncortex VTracer 0.6.3 -->
<svg version="1.1" xmlns="http://www.w3.org/2000/svg" width="1280" height="1280">
<path d="M0 0 C1.82 -0 3.63 -0.01 5.45 -0.01 C10.42 -0.02 15.39 -0.01 20.35 -0.01 C25.77 -0 31.18 -0.01 36.59 -0.01 C46.07 -0.02 55.55 -0.02 65.03 -0.01 C79.13 -0.01 93.22 -0.01 107.32 -0.02 C131.04 -0.03 154.76 -0.03 178.48 -0.02 C179.56 -0.02 179.56 -0.02 180.66 -0.02 C181.75 -0.02 181.75 -0.02 182.85 -0.02 C204.89 -0.01 226.92 -0.01 248.96 -0.02 C250.43 -0.02 251.91 -0.02 253.38 -0.02 C259.32 -0.02 265.25 -0.02 271.19 -0.02 C287.77 -0.02 304.36 -0.02 320.94 -0.02 C321.7 -0.02 322.46 -0.02 323.23 -0.02 C347.29 -0.02 371.35 -0.02 395.41 -0.02 C396.19 -0.02 396.97 -0.02 397.77 -0.02 C410.44 -0.01 423.11 -0.01 435.78 -0.01 C486.02 0 536.26 0 586.5 -0.01 C599.16 -0.01 611.82 -0.01 624.49 -0.02 C625.27 -0.02 626.04 -0.02 626.85 -0.02 C650.88 -0.02 674.92 -0.02 698.95 -0.02 C700.08 -0.02 700.08 -0.02 701.24 -0.02 C717.81 -0.02 734.37 -0.02 750.94 -0.02 C756.87 -0.02 762.8 -0.02 768.73 -0.02 C770.2 -0.02 771.68 -0.02 773.15 -0.02 C795.18 -0.01 817.2 -0.02 839.23 -0.02 C839.95 -0.02 840.67 -0.02 841.42 -0.02 C842.14 -0.02 842.86 -0.02 843.6 -0.02 C867.91 -0.03 892.22 -0.02 916.53 -0.01 C930.54 -0.01 944.55 -0.01 958.57 -0.02 C967.93 -0.02 977.29 -0.02 986.65 -0.01 C991.98 -0 997.31 -0 1002.65 -0.01 C1007.5 -0.02 1012.36 -0.01 1017.22 -0 C1018.96 -0 1020.7 -0 1022.44 -0.01 C1030.95 -0.03 1039.34 0.19 1047.8 1.15 C1048.5 1.23 1049.2 1.31 1049.92 1.39 C1055.24 2.06 1059.02 3.24 1063.45 6.25 C1063.86 6.9 1064.26 7.55 1064.68 8.22 C1067.2 11.11 1070.26 11.79 1073.82 12.81 C1085.66 16.32 1085.66 16.32 1088.76 21.69 C1090.7 24.63 1092.2 25.8 1095.45 27.13 C1099.94 29.07 1101.1 31.81 1103.17 36.09 C1104.56 38.44 1105.71 39.38 1108.01 40.81 C1113.93 44.6 1115.31 50.46 1116.89 57 C1118.08 61.73 1119.34 63.48 1123.45 66.25 C1129.24 74.83 1128.74 86.82 1128.7 96.78 C1128.7 97.99 1128.71 99.2 1128.71 100.45 C1128.71 103.78 1128.71 107.12 1128.71 110.45 C1128.7 114.09 1128.71 117.72 1128.71 121.36 C1128.72 127.73 1128.72 134.09 1128.71 140.46 C1128.71 149.92 1128.71 159.39 1128.72 168.86 C1128.73 185.76 1128.73 202.67 1128.72 219.58 C1128.71 234.38 1128.71 249.18 1128.72 263.97 C1128.72 265.44 1128.72 265.44 1128.72 266.95 C1128.72 270.93 1128.72 274.92 1128.72 278.9 C1128.72 316.28 1128.72 353.66 1128.71 391.04 C1128.7 424.25 1128.7 457.46 1128.71 490.66 C1128.72 527.97 1128.72 565.29 1128.72 602.6 C1128.72 606.58 1128.72 610.55 1128.72 614.53 C1128.72 615.51 1128.72 616.49 1128.72 617.5 C1128.71 632.29 1128.72 647.07 1128.72 661.86 C1128.73 678.68 1128.72 695.49 1128.71 712.3 C1128.71 721.71 1128.71 731.12 1128.72 740.53 C1128.72 746.82 1128.72 753.1 1128.71 759.39 C1128.7 762.97 1128.7 766.55 1128.71 770.13 C1128.72 774 1128.71 777.86 1128.7 781.72 C1128.7 782.82 1128.71 783.93 1128.71 785.07 C1128.67 795 1128.53 806.16 1121.89 814.13 C1120.45 815.25 1120.45 815.25 1118.45 815.25 C1118.28 816.03 1118.11 816.8 1117.93 817.6 C1114.15 833.86 1114.15 833.86 1106.16 838.85 C1104.06 840.57 1103.29 842.23 1102.14 844.69 C1099.69 849.62 1096.49 851.32 1091.73 853.85 C1088.67 855.73 1087.39 858.28 1085.45 861.25 C1080.28 865.03 1074.16 866.16 1067.99 867.35 C1065.32 868 1065.32 868 1064.24 870.21 C1063.98 870.89 1063.72 871.56 1063.45 872.25 C1053.13 881.73 1032.77 878.56 1019.83 878.55 C1017.45 878.56 1015.07 878.56 1012.68 878.57 C1007.71 878.57 1002.74 878.57 997.76 878.57 C991.4 878.56 985.04 878.58 978.68 878.6 C973.76 878.62 968.85 878.62 963.94 878.61 C961.59 878.61 959.24 878.62 956.9 878.63 C953.62 878.64 950.34 878.64 947.06 878.62 C946.1 878.63 945.14 878.64 944.15 878.65 C937.16 878.59 931.55 877.57 925.8 873.27 C925.09 872.54 924.37 871.81 923.64 871.06 C922.91 870.35 922.18 869.63 921.43 868.9 C916.73 862.62 915.96 856.36 916.07 848.69 C916.06 847.88 916.05 847.07 916.04 846.23 C916.08 837.91 918.61 832.35 924.45 826.25 C933.73 817.24 948.39 818.96 960.43 818.95 C963.24 818.94 966.06 818.93 968.87 818.91 C976.86 818.85 984.85 818.82 992.84 818.8 C997.75 818.78 1002.65 818.75 1007.56 818.71 C1009.43 818.7 1011.29 818.69 1013.15 818.69 C1015.75 818.69 1018.35 818.67 1020.95 818.65 C1021.71 818.66 1022.47 818.66 1023.25 818.67 C1029.91 818.58 1035.08 816.74 1040.2 812.31 C1043.44 809.71 1046.2 808.65 1050.2 807.56 C1054.26 806.24 1054.26 806.24 1056.76 802.95 C1057.35 801.07 1057.91 799.18 1058.42 797.28 C1059.97 792.73 1062.78 789.39 1065.74 785.66 C1068.34 781.99 1068.57 778.84 1068.58 774.4 C1068.58 773.42 1068.58 772.44 1068.58 771.43 C1068.58 769.81 1068.58 769.81 1068.58 768.16 C1068.58 767.01 1068.58 765.86 1068.59 764.67 C1068.59 761.46 1068.59 758.26 1068.59 755.05 C1068.59 751.56 1068.59 748.08 1068.6 744.59 C1068.61 737.67 1068.61 730.76 1068.61 723.84 C1068.61 715.55 1068.62 707.27 1068.62 698.98 C1068.64 678.96 1068.64 658.94 1068.65 638.91 C1068.65 629.44 1068.65 619.98 1068.66 610.51 C1068.67 578.11 1068.68 545.7 1068.69 513.3 C1068.69 511.27 1068.69 509.23 1068.69 507.2 C1068.69 505.16 1068.69 503.12 1068.69 501.08 C1068.69 496.99 1068.69 492.9 1068.69 488.81 C1068.69 487.29 1068.69 487.29 1068.69 485.73 C1068.69 452.83 1068.71 419.92 1068.73 387.02 C1068.76 352.24 1068.77 317.47 1068.77 282.69 C1068.77 278.87 1068.77 275.06 1068.77 271.24 C1068.77 270.3 1068.77 269.36 1068.77 268.4 C1068.77 253.26 1068.78 238.12 1068.8 222.99 C1068.81 207.78 1068.82 192.58 1068.81 177.37 C1068.8 168.33 1068.81 159.29 1068.82 150.26 C1068.83 144.22 1068.83 138.19 1068.82 132.15 C1068.82 128.71 1068.82 125.27 1068.83 121.83 C1068.84 118.13 1068.83 114.43 1068.82 110.72 C1068.83 109.11 1068.83 109.11 1068.84 107.47 C1068.79 99.42 1067.36 94.07 1061.95 87.88 C1059.34 84.73 1058.09 82.49 1057.26 78.5 C1056.73 76.21 1056.73 76.21 1055.45 74.25 C1052.55 72.63 1049.64 71.59 1046.5 70.51 C1043.38 69.22 1041.74 67.94 1039.39 65.56 C1031.3 57.9 1017.5 59.97 1007.05 60 C1005.29 60 1003.52 59.99 1001.76 59.99 C996.91 59.98 992.06 59.99 987.21 59.99 C981.94 60 976.66 59.99 971.39 59.99 C962.14 59.98 952.9 59.98 943.65 59.99 C929.9 59.99 916.16 59.99 902.41 59.98 C879.28 59.97 856.15 59.97 833.02 59.98 C831.97 59.98 831.97 59.98 830.89 59.98 C830.19 59.98 829.48 59.98 828.75 59.98 C807.27 59.99 785.78 59.99 764.3 59.98 C762.86 59.98 761.42 59.98 759.98 59.98 C754.2 59.98 748.42 59.98 742.64 59.98 C726.48 59.98 710.31 59.98 694.15 59.98 C693.05 59.98 693.05 59.98 691.92 59.98 C668.47 59.98 645.02 59.98 621.57 59.98 C620.43 59.98 620.43 59.98 619.26 59.98 C606.91 59.99 594.56 59.99 582.21 59.99 C533.22 60 484.23 60 435.23 59.99 C422.89 59.99 410.54 59.99 398.19 59.98 C397.05 59.98 397.05 59.98 395.89 59.98 C372.46 59.98 349.04 59.98 325.61 59.98 C324.5 59.98 324.5 59.98 323.38 59.98 C307.24 59.98 291.09 59.98 274.95 59.98 C269.17 59.98 263.4 59.98 257.62 59.98 C256.18 59.98 254.75 59.98 253.31 59.98 C231.83 59.99 210.35 59.98 188.87 59.98 C187.81 59.98 187.81 59.98 186.74 59.98 C185.68 59.98 185.68 59.98 184.61 59.98 C160.9 59.97 137.2 59.98 113.5 59.99 C99.83 59.99 86.16 59.99 72.49 59.98 C63.37 59.98 54.25 59.98 45.12 59.99 C39.92 60 34.72 60 29.52 59.99 C24.78 59.98 20.05 59.99 15.32 60 C13.62 60 11.92 60 10.21 59.99 C-5.81 59.32 -5.81 59.32 -19.55 66.13 C-22.96 69.14 -25.5 70.75 -29.86 72 C-33.17 73.16 -34.27 73.76 -36.04 76.84 C-36.85 78.92 -37.61 81.02 -38.33 83.14 C-39.92 87.19 -42.26 90.06 -45.1 93.31 C-47.61 96.67 -47.68 100.01 -47.68 104.1 C-47.68 105.08 -47.69 106.06 -47.69 107.08 C-47.69 108.15 -47.69 109.23 -47.68 110.34 C-47.69 112.07 -47.69 112.07 -47.69 113.83 C-47.69 117.04 -47.69 120.25 -47.69 123.46 C-47.69 126.94 -47.7 130.43 -47.7 133.91 C-47.71 140.83 -47.71 147.75 -47.71 154.67 C-47.71 162.95 -47.72 171.24 -47.73 179.52 C-47.74 199.54 -47.75 219.57 -47.75 239.59 C-47.76 249.06 -47.76 258.53 -47.76 268 C-47.78 300.4 -47.79 332.8 -47.79 365.2 C-47.79 367.23 -47.79 369.27 -47.79 371.3 C-47.79 373.34 -47.79 375.38 -47.79 377.42 C-47.79 381.51 -47.79 385.6 -47.79 389.7 C-47.79 390.71 -47.79 391.73 -47.79 392.77 C-47.8 425.68 -47.81 458.58 -47.84 491.49 C-47.86 526.26 -47.87 561.04 -47.87 595.81 C-47.87 599.63 -47.88 603.44 -47.88 607.26 C-47.88 608.2 -47.88 609.14 -47.88 610.11 C-47.88 625.24 -47.89 640.38 -47.9 655.51 C-47.92 670.72 -47.92 685.93 -47.91 701.13 C-47.91 710.17 -47.91 719.21 -47.93 728.25 C-47.94 734.28 -47.94 740.32 -47.93 746.35 C-47.92 749.79 -47.92 753.23 -47.93 756.67 C-47.94 760.37 -47.94 764.08 -47.92 767.78 C-47.93 768.85 -47.94 769.92 -47.95 771.03 C-47.89 779.3 -46.15 784.49 -41.05 791.13 C-38.57 794.49 -37.19 797.06 -36.3 801.13 C-35.76 803.38 -35.76 803.38 -34.55 805.25 C-31.96 806.6 -29.42 807.35 -26.61 808.15 C-22.08 809.78 -18.7 812.58 -14.96 815.54 C-10.58 818.65 -6.24 818.4 -1.01 818.4 C-0.25 818.4 0.51 818.4 1.3 818.41 C3.85 818.42 6.41 818.42 8.97 818.43 C10.8 818.43 12.64 818.44 14.47 818.45 C18.42 818.46 22.37 818.47 26.32 818.48 C32.58 818.5 38.83 818.52 45.08 818.55 C62.87 818.62 80.65 818.68 98.44 818.73 C108.26 818.76 118.08 818.79 127.9 818.84 C134.11 818.86 140.32 818.88 146.53 818.89 C150.41 818.9 154.28 818.92 158.16 818.94 C159.95 818.94 161.74 818.95 163.52 818.95 C189.02 818.96 189.02 818.96 196.45 824.25 C196.45 824.91 196.45 825.57 196.45 826.25 C197.77 826.91 199.09 827.57 200.45 828.25 C200.45 828.91 200.45 829.57 200.45 830.25 C201.44 830.58 202.43 830.91 203.45 831.25 C206.87 837.16 206.9 842.61 206.82 849.31 C206.84 850.77 206.84 850.77 206.86 852.25 C206.83 860.3 204.99 865.12 199.26 870.94 C198.55 871.69 197.83 872.43 197.09 873.2 C191.06 877.88 184.93 878.69 177.56 878.63 C176.7 878.63 175.84 878.63 174.95 878.64 C172.09 878.65 169.22 878.64 166.36 878.62 C164.3 878.63 162.24 878.63 160.18 878.64 C154.59 878.64 149.01 878.64 143.43 878.62 C137.57 878.61 131.72 878.61 125.86 878.62 C116.03 878.62 106.19 878.61 96.35 878.59 C85 878.57 73.65 878.56 62.3 878.57 C51.36 878.58 40.42 878.57 29.49 878.56 C24.84 878.55 20.19 878.55 15.55 878.55 C10.07 878.56 4.59 878.55 -0.89 878.53 C-2.89 878.53 -4.9 878.53 -6.9 878.53 C-35.5 878.56 -35.5 878.56 -42.55 872.25 C-42.81 871.58 -43.08 870.91 -43.35 870.21 C-44.43 868 -44.43 868 -47.09 867.35 C-48.62 867.05 -48.62 867.05 -50.18 866.75 C-63.12 863.84 -63.12 863.84 -66.99 857.81 C-67.37 857.2 -67.75 856.59 -68.15 855.96 C-69.87 853.86 -71.53 853.09 -73.99 851.94 C-78.92 849.49 -80.62 846.29 -83.15 841.54 C-85.03 838.48 -87.58 837.19 -90.55 835.25 C-94.33 830.08 -95.46 823.97 -96.65 817.79 C-97.3 815.13 -97.3 815.13 -99.51 814.05 C-100.52 813.65 -100.52 813.65 -101.55 813.25 C-108.72 805.24 -107.85 792.86 -107.8 782.7 C-107.81 781.49 -107.81 780.28 -107.81 779.04 C-107.82 775.7 -107.82 772.36 -107.81 769.02 C-107.8 765.38 -107.81 761.73 -107.82 758.09 C-107.82 751.72 -107.82 745.34 -107.82 738.97 C-107.81 729.49 -107.81 720.01 -107.82 710.53 C-107.83 693.6 -107.83 676.66 -107.82 659.73 C-107.82 644.91 -107.82 630.1 -107.82 615.28 C-107.82 614.3 -107.82 613.31 -107.82 612.3 C-107.82 608.31 -107.82 604.32 -107.82 600.33 C-107.83 562.89 -107.82 525.46 -107.81 488.03 C-107.8 454.78 -107.8 421.52 -107.81 388.27 C-107.82 350.9 -107.83 313.54 -107.82 276.18 C-107.82 272.19 -107.82 268.21 -107.82 264.22 C-107.82 262.75 -107.82 262.75 -107.82 261.25 C-107.82 246.44 -107.82 231.64 -107.82 216.83 C-107.83 199.99 -107.83 183.15 -107.82 166.31 C-107.81 156.89 -107.81 147.47 -107.82 138.05 C-107.82 131.75 -107.82 125.45 -107.81 119.16 C-107.81 115.57 -107.81 111.99 -107.81 108.4 C-107.82 104.53 -107.81 100.67 -107.8 96.8 C-107.81 95.69 -107.81 94.59 -107.82 93.45 C-107.77 83.51 -107.63 72.35 -100.99 64.38 C-99.55 63.25 -99.55 63.25 -97.55 63.25 C-97.38 62.48 -97.21 61.7 -97.04 60.91 C-94.73 50.98 -93.02 44.61 -84.42 38.82 C-82.32 37.06 -81.64 35.71 -80.61 33.19 C-78.72 28.72 -75.95 27.57 -71.7 25.53 C-69.36 24.14 -68.57 23.08 -67.24 20.75 C-63.43 14.65 -55.21 12.82 -48.55 11.25 C-44.83 10.01 -43.88 8.33 -41.55 5.25 C-37.1 2.58 -32.93 1.59 -27.84 1.08 C-26.73 0.96 -26.73 0.96 -25.59 0.84 C-17.07 -0 -8.56 -0.03 0 0 Z " fill="#000000" transform="translate(129.55188751220703,123.74831771850586)"/>
<path d="M0 0 C0.74 0.78 1.49 1.57 2.25 2.38 C5.12 5.12 7.47 6.24 11.06 7.88 C17.51 10.93 17.51 10.93 19.31 14.62 C20.7 18.28 20.7 18.28 24.31 19.56 C29.44 22.05 31.06 27.65 33.23 32.59 C35.07 36.14 37.15 38.23 40 41 C41.11 43.18 41.11 43.18 41.75 45.31 C41.97 46.01 42.19 46.71 42.42 47.43 C44.22 55.43 44.16 63.42 44.19 71.59 C44.2 72.95 44.21 74.31 44.21 75.68 C44.23 78.6 44.25 81.52 44.26 84.44 C44.28 89.05 44.31 93.67 44.34 98.29 C44.4 108.92 44.46 119.56 44.51 130.19 C44.56 139.95 44.62 149.7 44.68 159.46 C44.71 164.05 44.73 168.64 44.75 173.23 C44.76 176.08 44.78 178.94 44.8 181.79 C44.81 183.74 44.82 185.69 44.82 187.65 C44.83 188.81 44.84 189.98 44.85 191.18 C44.85 192.19 44.86 193.2 44.86 194.24 C45 196.92 45.4 199.38 46 202 C46.7 201.69 47.4 201.38 48.12 201.06 C54.67 198.64 61.3 198.82 68.19 198.81 C69.17 198.8 70.14 198.79 71.15 198.78 C80.32 198.76 89.68 198.93 97 205 C97.57 205.64 98.15 206.28 98.74 206.95 C101.52 209.47 104.29 210.55 107.75 212 C115.45 215.5 119.26 220.34 123 228 C123 228.66 123 229.32 123 230 C123.89 230.27 124.77 230.54 125.69 230.81 C129 232 129 232 131.62 233.69 C133.86 235.17 133.86 235.17 136.12 235 C138.23 234.09 138.23 234.09 139.38 231.62 C141.76 227.77 144.89 226.55 149.19 225.43 C152.81 224.87 156.39 224.82 160.05 224.8 C160.82 224.79 161.59 224.79 162.38 224.78 C164.01 224.77 165.64 224.76 167.26 224.76 C169.73 224.75 172.19 224.72 174.66 224.69 C192.2 224.57 192.2 224.57 199.21 229.58 C199.74 230.13 200.27 230.68 200.81 231.25 C203.98 234.29 207.11 236.22 211 238.25 C218.03 242.16 222.42 247.85 226 255 C230.24 257.66 234.16 259.58 239 261 C239.5 260.09 239.99 259.18 240.5 258.25 C243.21 254.24 246.49 252.56 251 251 C266.66 248.34 291.97 246.58 306 255 C306.87 256.18 306.87 256.18 307.75 257.38 C310.24 260.28 311.96 261.02 315.44 262.5 C320.46 264.64 324.6 266.79 326.88 272.03 C328.25 274.43 329.33 274.86 331.81 276 C336.85 278.9 337.88 282.93 339.78 288.21 C340.98 290.96 341.72 292.01 344.12 293.69 C349.39 297.92 350.1 304.55 351 311 C351.14 313.99 351.14 316.99 351.13 319.98 C351.14 321.32 351.14 321.32 351.14 322.69 C351.15 325.68 351.15 328.68 351.15 331.67 C351.15 333.81 351.15 335.96 351.16 338.11 C351.16 343.94 351.17 349.78 351.17 355.61 C351.17 359.26 351.17 362.91 351.17 366.56 C351.18 379.32 351.19 392.07 351.19 404.83 C351.18 416.69 351.2 428.54 351.21 440.4 C351.22 450.6 351.23 460.8 351.23 471 C351.23 477.08 351.23 483.16 351.24 489.25 C351.25 494.98 351.25 500.71 351.24 506.45 C351.24 508.54 351.25 510.63 351.25 512.72 C351.28 522.65 351.14 532.5 350.17 542.4 C350.1 543.15 350.03 543.9 349.96 544.68 C349.27 550.96 348.08 557.76 343 562 C342.34 562 341.68 562 341 562 C340.89 562.6 340.79 563.21 340.68 563.83 C340.19 566.6 339.69 569.36 339.19 572.12 C339.02 573.08 338.86 574.03 338.69 575.01 C336.53 586.7 336.53 586.7 331.94 590.88 C330 592 330 592 328 592 C327.84 592.77 327.68 593.55 327.52 594.34 C325.69 602.51 323.71 609.06 317 614.38 C313.98 617.02 313.19 618.44 311.62 622 C309.46 626.74 307.36 628.36 302.84 630.72 C300.6 632.28 300.03 633.57 299 636.06 C297.21 640.35 295.09 641.16 290.93 642.88 C288.56 644.25 287.89 645.53 286.62 647.94 C284.14 652.53 280.95 653.75 276.29 655.79 C273.1 657.48 271.91 660 270 663 C265.8 666.01 261.22 667.23 256.25 668.38 C251.77 669.49 251.77 669.49 248.69 673 C248.13 673.99 247.57 674.98 247 676 C241.42 679.49 235.37 680.24 228.99 681.29 C223.19 682.36 220.3 683.99 216 688 C213.84 689.11 213.84 689.11 211.94 689.75 C211.31 689.97 210.68 690.19 210.03 690.42 C197.66 693.95 183.91 693.15 171.15 693.15 C169.52 693.15 167.89 693.15 166.26 693.16 C161.88 693.16 157.5 693.17 153.11 693.17 C150.37 693.17 147.62 693.17 144.87 693.17 C135.26 693.18 125.64 693.19 116.02 693.19 C107.11 693.18 98.19 693.2 89.28 693.21 C81.58 693.22 73.88 693.23 66.19 693.23 C61.61 693.23 57.03 693.23 52.45 693.24 C48.14 693.25 43.83 693.25 39.52 693.24 C37.96 693.24 36.39 693.25 34.82 693.25 C26.76 693.28 18.82 693.03 10.8 692.14 C10.1 692.06 9.41 691.99 8.69 691.91 C2.48 691.15 -4.03 689.26 -8.37 684.5 C-10.25 682.77 -11.52 682.35 -13.98 681.75 C-14.76 681.56 -15.53 681.36 -16.32 681.15 C-17.92 680.76 -19.53 680.37 -21.13 679.98 C-27.42 678.37 -32.79 676.45 -37.25 671.5 C-40.12 668.89 -41.87 668.23 -45.5 667.06 C-50.74 665.33 -53.06 663.66 -56 659 C-56 658.34 -56 657.68 -56 657 C-56.78 656.96 -57.57 656.92 -58.38 656.88 C-64.74 655.34 -70.3 652.1 -74.44 647 C-77.64 643.25 -81.08 641.62 -85.48 639.49 C-88.14 637.92 -89.46 636.66 -91 634 C-91 633.01 -91 632.02 -91 631 C-91.87 630.75 -92.73 630.51 -93.62 630.25 C-99.87 627.94 -102.81 625.6 -105.8 619.65 C-107.31 617.58 -108.65 617.04 -111 616.06 C-114.43 614.6 -115.54 613.52 -116.94 610.06 C-118.46 606.36 -119.9 605.22 -123.5 603.5 C-128.01 601.34 -129.08 599.37 -130.91 594.86 C-132.63 591.93 -135.13 591.14 -138.17 589.86 C-140.64 588.7 -141.7 587.38 -143 585 C-143.23 584.17 -143.45 583.35 -143.69 582.5 C-145.47 579.1 -147.69 578.5 -151.1 576.96 C-153.56 575.72 -154.68 574.42 -156 572 C-156.23 571.17 -156.45 570.35 -156.69 569.5 C-158.22 566.58 -158.87 566.46 -161.81 565.25 C-165.52 563.63 -166.76 562.14 -168.5 558.5 C-170.67 553.99 -172.64 552.92 -177.16 551.09 C-179.49 549.71 -179.94 548.54 -180.94 546.06 C-182.46 542.36 -183.9 541.22 -187.5 539.5 C-192.01 537.34 -193.08 535.37 -194.91 530.86 C-196.63 527.93 -199.13 527.14 -202.17 525.86 C-204.64 524.7 -205.7 523.38 -207 521 C-207.23 520.17 -207.45 519.35 -207.69 518.5 C-209.22 515.58 -209.95 515.39 -212.88 514.12 C-217.59 512.04 -218.86 509.61 -221 505 C-222.27 502.45 -223.15 502.45 -225.75 501.44 C-229.43 499.71 -230.75 498.14 -232.5 494.5 C-234.66 490 -236.58 488.97 -241.09 487.16 C-244.22 485.26 -245.23 482.26 -246.79 479.04 C-248.55 476.08 -250.9 475.32 -254 474 C-256.89 471.11 -257.92 469.31 -258.94 465.31 C-259.29 464.22 -259.64 463.13 -260 462 C-262.38 460.82 -262.38 460.82 -265 460 C-270.06 455.45 -270.44 449.31 -271.56 442.94 C-271.95 440.78 -272.35 438.62 -272.75 436.46 C-273.01 435.04 -273.01 435.04 -273.26 433.58 C-274.06 430.8 -275.19 429.23 -277 427 C-279.19 419.31 -279.1 410.26 -275.86 402.93 C-273.15 396.83 -271.83 390.27 -270.56 383.75 C-269.21 377.28 -268.01 373.24 -262.56 369.19 C-259.98 366.99 -259.04 365.46 -257.5 362.5 C-254.75 357.28 -251.79 354.94 -246.56 352.19 C-243.7 350.64 -242.12 349.04 -240.19 346.44 C-235.77 341.01 -229.78 340.54 -223.2 339.27 C-222.53 339.14 -221.87 339.01 -221.19 338.88 C-219.27 338.52 -217.34 338.18 -215.42 337.84 C-212.05 337.01 -209.88 335.88 -207 334 C-199.81 331.39 -192.48 331.53 -185 333 C-183.31 333.99 -181.61 334.98 -179.94 336.01 C-176.2 337.92 -172.05 338.38 -167.94 339.06 C-156.9 340.93 -156.9 340.93 -152 344 C-151.42 344.95 -150.85 345.9 -150.25 346.88 C-147.84 350.22 -146.71 350.78 -143.06 352.38 C-138.28 354.53 -136.66 356.6 -134.28 361.16 C-132.36 363.92 -129.9 364.66 -126.87 365.93 C-123.56 367.82 -122.57 370.62 -121 374 C-120.67 374.66 -120.34 375.32 -120 376 C-116.65 369.3 -117.85 359.53 -117.86 352.22 C-117.85 350.32 -117.85 350.32 -117.84 348.39 C-117.83 344.89 -117.83 341.4 -117.83 337.91 C-117.82 334.13 -117.82 330.36 -117.81 326.58 C-117.79 320.05 -117.78 313.51 -117.77 306.97 C-117.76 297.51 -117.74 288.05 -117.71 278.59 C-117.67 263.22 -117.64 247.85 -117.61 232.48 C-117.6 231.1 -117.6 231.1 -117.6 229.69 C-117.57 216.65 -117.55 203.61 -117.53 190.57 C-117.53 189.65 -117.52 188.73 -117.52 187.78 C-117.52 186.86 -117.52 185.95 -117.52 185 C-117.49 169.69 -117.46 154.38 -117.42 139.07 C-117.39 129.63 -117.37 120.2 -117.36 110.76 C-117.36 104.3 -117.34 97.83 -117.32 91.36 C-117.31 87.63 -117.3 83.9 -117.3 80.18 C-117.3 76.13 -117.29 72.08 -117.27 68.03 C-117.27 66.86 -117.28 65.7 -117.28 64.49 C-117.16 45.39 -117.16 45.39 -111 38 C-110.17 37.26 -109.35 36.51 -108.5 35.75 C-105.99 32.99 -105.38 31.51 -104.25 28.06 C-102.37 22.83 -99.76 21.09 -95.05 18.37 C-92.19 16.46 -91.31 14.11 -90 11 C-87.22 8.54 -84.55 7.37 -81.06 6.19 C-77.32 4.77 -76.12 4.15 -73.5 0.94 C-68.44 -5.01 -60.49 -5.19 -53.09 -5.81 C-11.48 -8.42 -11.48 -8.42 0 0 Z M-44.8 55.33 C-45.86 56.81 -46.82 58.37 -47.75 59.94 C-49.89 62.86 -50.64 63.51 -53.69 65 C-57.24 66.62 -57.24 66.62 -57.7 69.71 C-58 73.05 -58.13 76.3 -58.13 79.65 C-58.14 80.3 -58.14 80.95 -58.14 81.61 C-58.15 83.78 -58.15 85.94 -58.14 88.11 C-58.15 89.67 -58.15 91.24 -58.16 92.81 C-58.17 97.12 -58.17 101.42 -58.17 105.73 C-58.18 110.38 -58.18 115.02 -58.19 119.67 C-58.21 127.72 -58.22 135.77 -58.23 143.83 C-58.24 155.48 -58.26 167.14 -58.29 178.79 C-58.33 197.72 -58.36 216.65 -58.39 235.57 C-58.4 237.27 -58.4 237.27 -58.4 239.01 C-58.43 255.08 -58.45 271.15 -58.47 287.22 C-58.47 288.35 -58.48 289.48 -58.48 290.64 C-58.48 291.77 -58.48 292.9 -58.48 294.07 C-58.51 312.92 -58.54 331.76 -58.58 350.61 C-58.61 362.24 -58.63 373.86 -58.64 385.48 C-58.64 393.45 -58.66 401.42 -58.68 409.39 C-58.69 413.98 -58.7 418.58 -58.7 423.17 C-58.7 427.38 -58.71 431.59 -58.72 435.81 C-58.73 437.32 -58.73 438.84 -58.72 440.36 C-58.68 463.57 -58.68 463.57 -64 471 C-66.46 472.43 -68.72 473.58 -71.31 474.69 C-71.96 474.98 -72.62 475.28 -73.29 475.58 C-78.81 478.04 -84.05 480.28 -90.19 480.31 C-91.03 480.33 -91.87 480.35 -92.73 480.36 C-95.54 479.91 -96.04 478.99 -98 477 C-101.25 475.69 -104.55 474.59 -107.87 473.48 C-111.41 471.81 -112.81 470.19 -115 467 C-118.35 462.53 -118.35 462.53 -123 459.62 C-126.19 457.9 -126.69 457.16 -128.38 454.12 C-130.21 450.87 -131.73 449.3 -135 447.5 C-139.04 445.27 -140.53 442.81 -142.72 438.84 C-144.16 436.78 -145.26 436.08 -147.5 435 C-150.6 433.5 -151.78 432.07 -153.44 429.06 C-155.25 425.82 -156.75 424.29 -160 422.5 C-164.02 420.28 -165.47 417.86 -167.65 413.91 C-169.63 411.1 -172.19 409.92 -175.15 408.29 C-177.26 406.82 -178.04 405.59 -179.19 403.31 C-180.65 399.94 -180.65 399.94 -183.16 398.81 C-191.75 396.36 -201.52 397.62 -210 400 C-210.67 402.33 -211.34 404.67 -212 407 C-212.18 407.65 -212.37 408.3 -212.56 408.97 C-213.35 412.63 -213.12 416.27 -213 420 C-213.01 420.72 -213.01 421.44 -213.02 422.19 C-212.9 425.2 -212.58 427.4 -210.45 429.61 C-207.05 432.21 -207.05 432.21 -203 433 C-202.77 433.89 -202.55 434.77 -202.31 435.69 C-200.5 440.27 -197.9 442.98 -193.56 445.31 C-190.97 447.02 -189.94 448.31 -188.19 450.81 C-185.5 454.61 -182.58 456.93 -178.8 459.57 C-177 461 -177 461 -175.06 463.94 C-172.57 467.64 -169.65 469.65 -166.1 472.27 C-164 474 -164 474 -161.94 477.12 C-159.98 480.02 -159 480.74 -156.06 482.38 C-152.05 484.67 -150.44 487.16 -148.22 491.13 C-146.29 494.08 -144.09 495.35 -141 497 C-140.34 497 -139.68 497 -139 497 C-138.66 498.05 -138.66 498.05 -138.31 499.12 C-136.33 503.47 -133.77 507 -129.56 509.38 C-126.9 511.06 -125.9 512.38 -124.12 514.94 C-122.11 517.79 -120.58 519.48 -117.44 521 C-114.03 522.98 -113.42 523.58 -111.62 526.81 C-109.2 531.16 -106.04 533.46 -102.06 536.35 C-99.37 538.5 -97.9 541.15 -96 544 C-93.76 545.84 -91.43 547.55 -89.1 549.28 C-86.42 551.48 -84.9 554.12 -83 557 C-81.01 558.59 -78.95 560.03 -76.87 561.5 C-75 563 -75 563 -73.06 566 C-70.97 569.04 -69.64 570.01 -66.56 571.88 C-63.18 573.97 -61.37 575.61 -59.5 579.12 C-57.17 583.43 -54.51 584.3 -50.05 585.94 C-47.64 587.19 -47.15 588.05 -46.06 590.5 C-44.91 592.98 -44.37 593.82 -41.86 595.02 C-40.6 595.44 -40.6 595.44 -39.31 595.88 C-34.97 597.34 -32.73 599.03 -29.69 602.44 C-25.34 607.18 -21 608.94 -14.92 610.83 C-11 612.4 -8.94 614.54 -6.67 618.05 C-4.64 620.42 -3.52 620.69 -0.5 621.24 C0.82 621.5 0.82 621.5 2.17 621.77 C3.11 621.95 4.04 622.13 5 622.31 C12.45 623.88 18.33 625.55 24.36 630.45 C31.92 634.89 41.49 634.29 49.98 634.26 C51.88 634.26 51.88 634.26 53.81 634.27 C57.24 634.28 60.67 634.28 64.11 634.27 C67.73 634.26 71.35 634.27 74.97 634.27 C81.05 634.28 87.13 634.27 93.22 634.26 C100.21 634.25 107.2 634.25 114.18 634.26 C120.22 634.27 126.26 634.27 132.29 634.27 C135.88 634.27 139.47 634.27 143.06 634.27 C169.27 635.94 169.27 635.94 192.78 627.45 C198.08 623.99 205.09 623.54 211.22 622.4 C217.7 621.04 221.53 619.29 226.27 614.64 C229.55 611.53 233.51 610.18 237.69 608.62 C241.32 606.84 242.4 605.66 244 602 C244 601.34 244 600.68 244 600 C244.72 599.73 245.44 599.46 246.19 599.19 C250.93 597.19 253.74 595.71 256.31 591.19 C258.2 587.89 259.93 586.17 263.12 584.12 C267.42 581.19 268.14 578.34 269.29 573.4 C270.54 569.17 273.27 566.51 276.57 563.63 C278.35 561.6 278.78 560 279.44 557.38 C279.69 556.4 279.94 555.43 280.2 554.43 C280.78 551.93 281.34 549.43 281.87 546.92 C283.6 538.86 285.55 531.93 289.73 524.71 C292.31 519.2 292.15 513.13 292.13 507.14 C292.14 506.38 292.14 505.62 292.14 504.84 C292.15 502.31 292.15 499.77 292.15 497.24 C292.15 495.42 292.15 493.6 292.16 491.78 C292.16 486.84 292.17 481.9 292.17 476.96 C292.17 473.88 292.17 470.79 292.17 467.7 C292.18 456.93 292.19 446.16 292.19 435.39 C292.18 425.35 292.2 415.32 292.21 405.28 C292.22 396.66 292.23 388.04 292.23 379.41 C292.23 374.27 292.23 369.12 292.24 363.97 C292.25 359.13 292.25 354.29 292.24 349.45 C292.24 347.68 292.25 345.91 292.25 344.13 C292.26 341.71 292.25 339.28 292.25 336.86 C292.25 335.81 292.25 335.81 292.26 334.74 C292.23 330.19 291.6 326.26 290 322 C287.12 320.18 287.12 320.18 284 319 C281.13 316.74 280.32 314.35 279 311 C276.15 309.57 273.68 309.87 270.5 309.88 C268.75 309.87 268.75 309.87 266.97 309.87 C264.07 309.8 264.07 309.8 262 311 C261.57 311.93 261.13 312.86 260.69 313.81 C258.35 318.23 255.72 320.43 251 322 C249.51 326.65 248.8 331.3 248.06 336.12 C246.58 345.03 242.92 350.28 236 356 C227.99 360.66 217.41 359.91 208.44 358.64 C202.44 356.86 197.66 351.89 194 347 C190.06 339.45 190.51 331.44 190.44 323.12 C190.83 309.78 190.83 309.78 188 297 C186.07 295.42 184.2 294.35 181.98 293.23 C178.7 291.19 177.62 288.43 176 285 C166.83 283.74 166.83 283.74 158.66 286.86 C156.91 289.19 156.91 289.19 155.59 291.64 C154 294 154 294 150.94 295.66 C146.03 299.57 146.43 305.06 145.74 311.03 C144.33 320.77 138.66 326.25 131 332 C126.45 333.52 121.95 333.23 117.19 333.25 C115.71 333.28 115.71 333.28 114.2 333.31 C106.06 333.36 101.16 331.46 95 326 C94.67 325.34 94.34 324.68 94 324 C93.34 324 92.68 324 92 324 C89.63 317.84 88.52 312.35 88.34 305.77 C88.3 304.92 88.27 304.08 88.23 303.22 C88.12 300.56 88.03 297.91 87.94 295.25 C87.84 292.58 87.74 289.91 87.63 287.24 C87.56 285.59 87.5 283.93 87.45 282.28 C87.29 278.14 86.98 274.74 85 271 C83.22 269.6 83.22 269.6 81.12 268.62 C76.71 266.11 75.14 263.55 73 259 C70.71 258.97 68.42 258.95 66.12 258.94 C64.21 258.92 64.21 258.92 62.26 258.9 C59.11 258.77 59.11 258.77 57 260 C54.76 263.78 54.76 263.78 54 268 C51.35 269.08 48.72 270.09 46 271 C42.03 278.95 43.71 290.77 43.6 299.57 C43.35 317.54 43.35 317.54 37.91 324.78 C37.16 325.49 36.4 326.2 35.62 326.94 C34.87 327.67 34.12 328.4 33.35 329.15 C27.71 333.59 22.07 333.37 15.19 333.38 C14.23 333.4 13.27 333.42 12.28 333.45 C4.58 333.48 -0.57 331.9 -6.46 326.92 C-7.09 326.21 -7.72 325.49 -8.38 324.75 C-9.02 324.04 -9.67 323.34 -10.34 322.61 C-14.33 316.35 -14.29 309.27 -14.27 302.09 C-14.28 301.12 -14.28 300.15 -14.29 299.15 C-14.3 295.92 -14.3 292.68 -14.3 289.45 C-14.31 287.12 -14.32 284.8 -14.33 282.47 C-14.35 277.47 -14.36 272.48 -14.37 267.48 C-14.38 260.24 -14.4 253.01 -14.42 245.77 C-14.46 234.02 -14.5 222.27 -14.52 210.52 C-14.52 209.82 -14.53 209.12 -14.53 208.4 C-14.53 207.69 -14.53 206.99 -14.53 206.26 C-14.56 196.29 -14.58 186.32 -14.61 176.35 C-14.61 175.64 -14.61 174.94 -14.61 174.22 C-14.64 162.51 -14.68 150.8 -14.72 139.09 C-14.74 131.24 -14.76 123.38 -14.78 115.52 C-14.79 110.64 -14.8 105.75 -14.82 100.86 C-14.82 98.6 -14.83 96.33 -14.83 94.06 C-14.83 90.97 -14.84 87.88 -14.86 84.79 C-14.85 83.44 -14.85 83.44 -14.85 82.07 C-14.88 77.28 -15.06 72.7 -16 68 C-17.65 66.4 -17.65 66.4 -19.81 65.56 C-24.02 63.31 -25.45 61.04 -27.21 56.67 C-27.88 54.8 -27.88 54.8 -30 54 C-32.14 53.85 -34.29 53.78 -36.44 53.75 C-38.17 53.71 -38.17 53.71 -39.93 53.67 C-42.96 53.73 -42.96 53.73 -44.8 55.33 Z " fill="#000000" transform="translate(651,514)"/>
<path d="M0 0 C0.42 0.51 0.84 1.01 1.27 1.54 C3.93 3.79 7.03 3.98 10.38 4.5 C11.82 4.75 13.27 5 14.71 5.26 C15.79 5.44 15.79 5.44 16.9 5.63 C33.59 8.54 33.59 8.54 40 14 C40.33 14.66 40.66 15.32 41 16 C42.79 16.73 42.79 16.73 44.97 17.26 C45.79 17.49 46.6 17.72 47.44 17.95 C48.74 18.32 48.74 18.32 50.06 18.69 C56.57 20.61 61.21 22.24 65.91 27.28 C68.84 29.69 72.16 30.75 75.69 32 C80.97 33.89 84.07 35.4 86.78 40.41 C88.92 43.2 92.19 43.79 95.42 44.9 C99.62 46.69 102.99 49.59 106 53 C106 53.66 106 54.32 106 55 C106.66 55.23 107.32 55.45 108 55.69 C114.89 58.7 119.18 61.88 123.43 68.09 C125.15 70.18 126.71 71.2 129.06 72.5 C133.03 74.72 134.56 77.19 136.73 81.11 C138.11 83.16 139.28 84.04 141.38 85.31 C146.42 88.53 149.25 93.81 152 99 C152 99.66 152 100.32 152 101 C152.6 101.26 153.2 101.51 153.81 101.78 C159.68 105.06 162.64 111.81 164.75 117.92 C165.95 120.28 165.95 120.28 168.94 121.81 C172.65 124.47 173.6 127.08 174.94 131.25 C176.97 136.98 179.17 140.81 183.47 145.19 C186.15 148.36 186.92 152.06 188 156 C190.27 163.63 190.27 163.63 194.56 170.19 C199.63 176.04 200.57 183.25 201.56 190.69 C202.49 197.53 203.51 203.03 207.5 208.81 C218.16 225.56 214.16 254.64 214.13 273.48 C214.13 277 214.13 280.51 214.14 284.02 C214.14 294.46 214.08 304.89 213.68 315.31 C213.66 316.11 213.64 316.91 213.61 317.74 C213.39 322.49 212.57 325.86 210 330 C207.56 332.12 207.56 332.12 205 334 C202.59 336.26 200.63 338.48 198.62 341.12 C194.98 345.11 191.8 345.83 186.48 346.34 C176.02 346.45 168.43 345.49 160.56 338.25 C150.82 327.63 152.52 312.09 153.1 298.61 C153.23 296.16 153.36 293.7 153.5 291.25 C155.38 264.52 155.38 264.52 148.23 239.32 C143.94 231.22 143.26 221.66 142.18 212.7 C141.02 203.64 139.62 197.5 133 191 C131.77 188.42 131.01 185.75 130.25 183 C130.04 182.3 129.83 181.6 129.62 180.88 C128.77 177.97 128.02 175.12 127.54 172.12 C126.68 168.72 123.86 167.83 121 166 C118.88 163.18 117.82 160.44 116.75 157.12 C115.28 153.01 113.01 150.85 109.85 147.92 C105.3 143.19 101.99 137.49 101 131 C100.28 130.94 99.56 130.88 98.81 130.81 C95 129.71 93.48 128.08 91 125 C90.57 123.17 90.57 123.17 90.12 121.31 C89.75 120.22 89.38 119.13 89 118 C85.66 116.81 85.66 116.81 82 116 C78.92 113.52 77.29 112 76.19 108.19 C76.09 107.1 76.09 107.1 76 106 C75.45 105.86 74.91 105.73 74.35 105.59 C67.88 103.74 62.82 100.73 58 96 C57.67 95.01 57.34 94.02 57 93 C54.71 91.84 54.71 91.84 52 91 C50.31 90.43 48.62 89.84 46.94 89.25 C46.1 88.97 45.26 88.68 44.4 88.39 C42 87 42 87 40.31 84.06 C36.98 79.65 33.28 79.1 28.06 77.81 C14.57 74.28 14.57 74.28 11.56 69.91 C9.35 67.2 7.46 67.08 4.06 66.44 C2.82 66.2 1.57 65.96 0.29 65.71 C-2.77 65.18 -5.84 64.74 -8.91 64.32 C-19.47 62.9 -29.49 61.44 -38.84 55.91 C-45.05 53.29 -52.61 53.84 -59.24 53.83 C-60.2 53.83 -61.16 53.83 -62.15 53.82 C-64.18 53.82 -66.2 53.81 -68.23 53.81 C-71.29 53.81 -74.36 53.79 -77.43 53.78 C-79.41 53.77 -81.38 53.77 -83.36 53.77 C-84.27 53.76 -85.17 53.76 -86.1 53.75 C-93.64 53.77 -101.95 54.02 -108.62 57.88 C-117.29 62.62 -128.3 63.88 -138 65.06 C-148.52 66.29 -148.52 66.29 -157.14 71.93 C-161.28 75.58 -165.51 76.68 -170.81 77.88 C-171.67 78.09 -172.53 78.3 -173.41 78.52 C-179.54 80 -179.54 80 -182 80 C-182.34 81.11 -182.34 81.11 -182.69 82.25 C-185.14 87.38 -188.94 89.05 -194.06 90.94 C-198.46 92.6 -200.19 94.19 -203 98 C-206.99 101.18 -210.89 103.95 -215.94 105 C-217.45 105.5 -217.45 105.5 -219 106 C-220.12 108.85 -220.12 108.85 -221 112 C-223.79 114.73 -225.96 116.66 -229.69 117.88 C-232.72 119.35 -233.01 121.13 -234.12 124.18 C-235.68 127.41 -238.11 128.95 -241 131 C-241.99 131.33 -242.98 131.66 -244 132 C-244.99 133.79 -244.99 133.79 -245.75 136 C-248.18 141.87 -251.85 147.14 -256.57 151.42 C-258.48 153.53 -259.26 155.74 -260.31 158.38 C-262.5 163.38 -264.42 166.05 -269 169 C-269.66 169 -270.32 169 -271 169 C-271.08 170.22 -271.17 171.43 -271.25 172.69 C-272.33 181.91 -274.26 190.52 -281.41 196.83 C-285.63 202.6 -285.5 211.41 -286.38 218.31 C-288.82 236.43 -288.82 236.43 -293.49 243.14 C-295.39 246.74 -295.82 250.13 -296.19 254.12 C-296.27 254.94 -296.35 255.76 -296.43 256.6 C-297.45 268.39 -297.14 280.24 -297 292.06 C-296.95 296.74 -296.91 301.42 -296.88 306.1 C-296.86 307.15 -296.84 308.19 -296.82 309.27 C-296.77 317.89 -296.85 327.35 -303 334 C-305.32 334.72 -307.65 335.39 -310 336 C-311.18 337.87 -311.18 337.87 -312 340 C-315.57 343.78 -318.59 344.64 -323.6 344.96 C-334.1 345.12 -334.1 345.12 -338.31 341.75 C-341 339 -341 339 -342.88 336.5 C-344.95 334.06 -346.32 333.18 -349.06 331.69 C-352.84 329.43 -354.33 327.48 -355.48 323.24 C-357.48 314.6 -357.16 305.68 -357.17 296.87 C-357.17 295.39 -357.17 293.92 -357.18 292.44 C-357.18 289.35 -357.19 286.25 -357.19 283.16 C-357.19 280.04 -357.19 276.92 -357.21 273.8 C-357.33 244.18 -357.33 244.18 -356.24 229.47 C-356.18 228.56 -356.12 227.64 -356.05 226.7 C-355.26 217.71 -352.82 209.97 -347 203 C-346.11 200.08 -346.11 200.08 -345.73 196.92 C-345.54 195.76 -345.36 194.6 -345.16 193.4 C-344.81 190.98 -344.46 188.56 -344.11 186.14 C-342.85 178.36 -340.86 173.18 -336 167 C-333.41 163.13 -332.28 159.72 -331.19 155.19 C-329.57 149.24 -327.62 144.25 -323 140 C-322.34 140 -321.68 140 -321 140 C-320.82 139.43 -320.64 138.86 -320.45 138.28 C-315.75 123.85 -315.75 123.85 -312 121 C-311.33 120.73 -310.66 120.46 -309.98 120.18 C-307.86 119.19 -307.86 119.19 -307.27 117.19 C-307.12 116.47 -306.97 115.74 -306.81 115 C-305.25 109.67 -302.2 106.63 -298.4 102.68 C-295.88 99.86 -293.94 96.96 -291.94 93.75 C-289.01 89.18 -286.3 86.39 -281.8 83.43 C-279.73 81.79 -278.77 80.23 -277.5 77.94 C-275.28 73.99 -272.86 72.5 -268.96 70.34 C-266.75 68.83 -265.66 67.35 -264.19 65.12 C-261.11 60.65 -257.28 58.45 -252.66 55.72 C-250.17 54.11 -248.5 52.58 -246.56 50.38 C-242.93 46.41 -238.62 45.12 -233.67 43.25 C-230.12 41.59 -228.85 39.4 -227 36 C-224.69 34.23 -222.47 33.17 -219.74 32.18 C-215.07 30.48 -211.61 28.91 -208 25.44 C-203.76 21.44 -199.57 20.32 -194 19 C-188.69 17.64 -184.97 16.15 -180.81 12.5 C-174.4 7.19 -166.69 6.67 -158.68 5.52 C-152.41 4.6 -148.33 3.42 -143 0 C-117.39 -14.85 -25.02 -16.16 0 0 Z " fill="#000000" transform="translate(686,310)"/>
<path d="M0 0 C1.34 -0 2.67 -0.01 4.01 -0.01 C6.8 -0.02 9.6 -0.02 12.39 -0.02 C15.22 -0.02 18.05 -0.02 20.88 -0.04 C65.15 -0.25 65.15 -0.25 74.18 8.18 C77.93 10.8 81.34 11.28 85.77 12.04 C93.47 13.54 100.04 15.55 105.34 21.7 C108.56 24.51 112.91 25.42 116.89 26.79 C120.82 28.52 123.2 30.36 125 34.3 C126.38 36.82 127.73 37.14 130.4 38.11 C134.48 39.77 136.6 41.38 139.02 45.17 C140.78 48.35 140.78 48.35 143.9 49.54 C147.88 51.61 150.14 54.09 151.9 58.23 C153 60.46 153 60.46 155.9 62.04 C160.06 64.87 162.31 68.02 163.9 72.79 C165.48 76.12 167.98 77.18 171.02 79.17 C174.27 83.14 175.02 87.82 176.08 92.74 C177.26 95.78 178.15 95.86 181.02 97.17 C184.79 100.97 186.07 104.87 187.21 109.98 C187.46 110.99 187.46 110.99 187.71 112.02 C188.54 115.55 189.1 118.94 189.39 122.55 C189.6 123.75 189.81 124.94 190.02 126.17 C191.89 127.54 191.89 127.54 194.02 128.17 C201.56 139.92 200.4 155.06 200.39 168.51 C200.4 171.49 200.43 174.48 200.47 177.46 C200.48 179.38 200.48 181.3 200.48 183.22 C200.5 184.1 200.51 184.98 200.53 185.89 C200.47 193.8 197.91 199.85 192.27 205.48 C191.66 206.12 191.05 206.75 190.41 207.41 C184.44 211.81 178.28 212.65 171.02 212.54 C170.27 212.55 169.51 212.57 168.73 212.58 C162.11 212.54 156.7 211.21 151.38 207.15 C150.66 206.41 149.95 205.68 149.21 204.92 C148.48 204.19 147.75 203.46 147 202.71 C141.63 195.81 141.49 189.14 140.92 180.62 C140.19 170.38 139.39 161.75 133.85 152.88 C130.45 146.84 129.6 139.42 128.33 132.69 C127.19 126.38 127.19 126.38 123.02 121.79 C122.03 121.26 121.04 120.72 120.02 120.17 C118.37 117.36 118.37 117.36 117.09 114.29 C114.89 109.56 112.96 106.69 108.81 103.59 C106.75 101.95 105.16 100.12 103.46 98.11 C100.55 94.68 97.53 91.97 94.02 89.17 C93.16 88.18 93.16 88.18 92.27 87.17 C89.33 84.55 86.08 83.24 82.46 81.71 C80.02 80.17 80.02 80.17 78.47 77.2 C74.63 72.45 69.71 72.22 63.9 71.11 C56.47 69.63 49.92 68.02 43.25 64.35 C30.16 57.37 8.98 58.4 -4.98 62.17 C-8.07 64.01 -8.07 64.01 -10.98 66.17 C-16.36 68.44 -21.89 69.99 -27.62 71.1 C-28.42 71.26 -29.22 71.41 -30.05 71.58 C-31.64 71.88 -33.23 72.16 -34.83 72.42 C-39.04 73.22 -40.51 73.53 -43.14 77.12 C-43.75 78.12 -44.35 79.13 -44.98 80.17 C-47.78 81.82 -47.78 81.82 -50.85 83.11 C-55.59 85.31 -58.45 87.23 -61.55 91.38 C-63.2 93.44 -65.02 95.03 -67.04 96.73 C-70.47 99.64 -73.16 102.67 -75.98 106.17 C-76.8 106.91 -77.63 107.65 -78.48 108.42 C-81.41 111.64 -82.88 114.88 -84.57 118.86 C-85.98 121.17 -85.98 121.17 -88.5 122.51 C-91.45 124.49 -91.88 126.06 -92.63 129.46 C-92.77 130.15 -92.9 130.83 -93.04 131.54 C-93.36 132.99 -93.69 134.44 -94.02 135.88 C-94.25 136.97 -94.25 136.97 -94.5 138.07 C-95.19 141.12 -96.03 144.11 -96.91 147.11 C-97.19 148.06 -97.47 149.02 -97.75 150.01 C-98.81 152.74 -99.94 154.67 -101.5 157.11 C-105.08 163.37 -105.14 170.17 -105.6 177.23 C-107.06 198.01 -107.06 198.01 -114.16 204.98 C-114.88 205.71 -115.59 206.44 -116.33 207.19 C-122.6 211.88 -128.87 212.65 -136.54 212.54 C-137.35 212.55 -138.16 212.57 -139 212.58 C-145.66 212.55 -150.52 211.19 -155.78 206.86 C-156.61 206.02 -157.44 205.17 -158.29 204.29 C-159.13 203.45 -159.97 202.61 -160.84 201.74 C-165.19 196.51 -165.4 191.53 -165.66 184.98 C-165.7 184.07 -165.74 183.17 -165.78 182.24 C-166.04 174.68 -165.93 167.16 -165.66 159.61 C-165.61 158.02 -165.61 158.02 -165.56 156.4 C-164.7 136.44 -164.7 136.44 -159.98 129.17 C-159.33 128.67 -158.69 128.17 -158.03 127.66 C-154.89 123.85 -154.43 119.57 -153.48 114.79 C-151.87 106.76 -150.27 101.63 -144.54 95.61 C-141.89 92.58 -140.89 89.32 -139.6 85.54 C-137.46 79.57 -137.46 79.57 -135.25 77.75 C-134.64 77.48 -134.04 77.2 -133.41 76.92 C-129.6 74.98 -129.45 74.6 -128.04 70.86 C-126.26 66.15 -123.74 63.89 -119.86 60.79 C-117.33 58.61 -115.78 55.97 -113.98 53.17 C-112.35 51.79 -110.68 50.46 -108.98 49.17 C-108.19 48.38 -107.41 47.6 -106.6 46.79 C-98.39 38.58 -98.39 38.58 -93.79 37.23 C-90.25 35.89 -89.68 34.11 -88.02 30.84 C-85.91 27.45 -82.25 26.62 -78.65 25.35 C-77.39 24.89 -77.39 24.89 -76.1 24.42 C-75.32 24.15 -74.54 23.89 -73.73 23.62 C-71.03 22.2 -69.48 20.79 -67.31 18.69 C-62.75 14.57 -58.42 13.62 -52.48 12.61 C-45.66 11.42 -41.08 9.98 -35.69 5.53 C-33.6 3.87 -31.68 3.05 -29.1 2.36 C-28.36 2.14 -27.62 1.93 -26.86 1.71 C-17.97 0.04 -9.02 0.01 0 0 Z " fill="#000000" transform="translate(596.9765625,405.83203125)"/>
</svg>
