<svg xmlns="http://www.w3.org/2000/svg" width="46" height="47" overflow="hidden"><defs><clipPath id="a"><path d="M409 437h46v47h-46z"/></clipPath><clipPath id="b"><path d="M414 443h36v35h-36z"/></clipPath><clipPath id="c"><path d="M414 443h36v35h-36z"/></clipPath><clipPath id="d"><path d="M414 443h36v35h-36z"/></clipPath></defs><g clip-path="url(#a)" transform="translate(-409 -437)"><g clip-path="url(#b)"><g clip-path="url(#c)"><g fill="#212529" clip-path="url(#d)"><path d="M417.644 446.384h26.96a760.3 760.3 0 0 1 1.65 0h.146a6.338 6.338 0 0 1 .773.038c.15.018.256.05.38.133l.035.054c.07.079.157.097.257.125.333.096.333.096.42.243.055.08.097.112.188.149.127.053.16.128.218.245.039.064.071.09.136.129.166.104.205.264.25.443.033.129.068.177.184.253.163.234.149.562.148.834V449.702a220.983 220.983 0 0 1 0 1.3 1038.88 1038.88 0 0 1 0 2.6v3.475a4007.817 4007.817 0 0 0 0 5.784v4.288a46.56 46.56 0 0 0 0 .61v.092c-.001.271-.005.576-.192.794-.04.031-.04.031-.097.031l-.014.064c-.107.445-.107.445-.331.581-.06.047-.081.093-.113.16-.07.135-.16.181-.293.25-.086.052-.122.122-.177.203-.145.103-.317.134-.49.167-.076.017-.076.017-.106.078a6.843 6.843 0 0 1-.023.056c-.29.259-.862.172-1.226.172h-.621l-.537.001h-.414l-.198.001H444.198c-.196-.001-.354-.029-.516-.147l-.06-.06-.063-.059c-.132-.172-.154-.343-.15-.553l-.001-.067c0-.227.072-.38.236-.546.261-.247.673-.2 1.012-.2h.237a126.277 126.277 0 0 1 1.089-.006h.157l.22-.002h.064a.704.704 0 0 0 .477-.173.697.697 0 0 1 .28-.13c.115-.036.115-.036.185-.126.017-.052.033-.103.047-.155.044-.125.123-.216.206-.318.073-.1.08-.187.08-.308v-2.062l.002-1.643v-4.188a3934.882 3934.882 0 0 1 .003-5.552v-.391l.001-1.242v-3.069l.001-.09c-.001-.22-.042-.366-.194-.535a.513.513 0 0 1-.132-.257c-.014-.062-.014-.062-.05-.116a1.52 1.52 0 0 0-.252-.102.535.535 0 0 1-.2-.135c-.228-.21-.616-.153-.91-.152H417.931c-.45-.019-.45-.019-.837.167a.675.675 0 0 1-.29.16c-.093.032-.124.049-.174.133a4.097 4.097 0 0 0-.064.172.923.923 0 0 1-.19.278c-.071.092-.073.184-.073.295v1.383l-.001.68-.001 1.642v.777l-.001 2.658v.754c0 .9 0 1.8-.002 2.7v3.243a1783.654 1783.654 0 0 1-.001 2.488l-.001.742a146.99 146.99 0 0 0 0 1.081v.089a.79.79 0 0 0 .193.55c.07.091.109.162.134.273.015.061.015.061.05.113.072.036.144.057.223.079.127.044.222.121.327.202.123.085.246.078.393.078h.28l.155.002h.333l.528.002 1.5.005.83.003.523.002h.327l.151.001c.717 0 .717 0 .926.145v.055l.113.055v.054l.084.028c.096.161.097.31.095.493v.08c0 .22-.052.353-.213.512l-.06.062c-.17.127-.343.15-.55.148h-1.454l-.83-.001h-.958a473 473 0 0 1-.923 0l-.392-.001h-.632c-.803 0-.803 0-1.002-.172l-.022-.056c-.03-.06-.03-.06-.105-.078l-.087-.017c-.364-.08-.364-.08-.473-.244-.01-.017-.021-.034-.033-.05-.048-.058-.095-.08-.164-.11-.139-.068-.186-.155-.258-.285-.052-.084-.124-.12-.208-.172-.106-.142-.138-.309-.171-.478-.019-.072-.019-.072-.08-.102-.03-.01-.03-.01-.058-.022-.202-.219-.177-.557-.176-.835v-.1a45.056 45.056 0 0 1 0-.573V452.313a1104.338 1104.338 0 0 1 0-2.154v-1.22c.001-.272.005-.577.192-.795.04-.03.04-.03.096-.03l.015-.064c.065-.272.113-.446.355-.605a.327.327 0 0 0 .107-.153c.053-.123.13-.154.25-.21a.293.293 0 0 0 .126-.13c.107-.167.338-.217.526-.26.104-.034.13-.08.196-.164a.884.884 0 0 1 .386-.114l.063-.007c.24-.023.48-.024.72-.023Z"/><path d="m432.309 457.055.063.065a.78.78 0 0 0 .248.15c.181.084.181.084.232.185.04.1.04.1.14.135.145.068.19.221.252.356.051.097.11.154.19.23.031.06.031.06.05.118.005.02.012.038.018.058.05.219.049.437.05.66v.112l.002.24.002.379.005.872.005.8a164.098 164.098 0 0 1 .003.61v.161l.001.097v.083c.005.074.016.14.033.212l.06-.025c.184-.066.37-.062.564-.062h.083c.258-.001.521.003.727.17l.05.053c.077.069.155.098.252.138.217.096.324.228.43.437v.055l.075.022a.552.552 0 0 1 .167.079c.063.04.063.04.126.036.06-.025.06-.025.092-.093.067-.105.155-.138.276-.169a2.11 2.11 0 0 1 .305-.017h.066l.137-.001.208-.002c.494-.003.494-.003.69.134l.046.045c.089.083.177.136.286.192.198.107.322.262.422.458.12.072.23.125.366.164l.042-.075c.076-.11.169-.156.295-.199.44-.072 1.153-.12 1.547.11l.05.065c.07.079.118.1.216.14.14.058.257.117.321.26.039.066.07.078.14.109.14.08.17.19.223.334a.287.287 0 0 0 .122.15c.149.115.169.297.194.473.004.082.004.164.004.245v1.275l.001 1.046v.972l.001.837a298.99 298.99 0 0 0 0 .97v.17c.002.272-.002.541-.03.812l-.005.063c-.02.171-.053.357-.196.473h-.056l-.01.05-.041.227-.014.079c-.061.32-.061.32-.19.434-.055.03-.055.03-.111.03l-.014.065c-.051.223-.107.402-.295.548a.471.471 0 0 0-.152.208c-.06.13-.12.174-.247.238-.063.043-.079.078-.108.146-.05.118-.11.14-.227.187-.066.037-.085.072-.12.138-.07.126-.16.159-.291.215-.09.046-.124.115-.177.197a1.043 1.043 0 0 1-.387.147c-.126.03-.126.03-.213.126a17.71 17.71 0 0 0-.047.082c-.157.096-.327.116-.507.145a.631.631 0 0 0-.365.183c-.06.03-.06.03-.114.048l-.054.019c-.348.096-.735.074-1.093.074h-.74l-.81.001-.753.001h-1.399l-.133.001c-.226 0-.45-.006-.675-.03l-.06-.007c-.174-.02-.357-.072-.48-.202a.298.298 0 0 0-.157-.075 3.677 3.677 0 0 1-.066-.017l-.135-.032c-.177-.044-.328-.096-.454-.232a.52.52 0 0 0-.232-.121.459.459 0 0 1-.295-.22v-.055l-.067-.003a.82.82 0 0 1-.452-.27c-.09-.103-.186-.148-.31-.206a.367.367 0 0 1-.155-.15v-.082l-.074-.02c-.176-.064-.259-.128-.343-.29-.042-.057-.08-.072-.146-.099-.096-.04-.128-.07-.167-.164-.043-.1-.083-.132-.184-.179-.127-.06-.157-.113-.209-.236-.048-.08-.119-.102-.204-.137a.266.266 0 0 1-.136-.133l-.02-.068c-.05-.093-.112-.11-.208-.152a.283.283 0 0 1-.137-.135l-.02-.069c-.043-.08-.061-.083-.144-.116-.104-.044-.14-.085-.188-.185-.061-.123-.116-.152-.244-.202-.065-.038-.078-.07-.106-.138-.043-.1-.083-.132-.184-.179-.127-.06-.157-.113-.209-.236-.048-.08-.119-.102-.204-.137a.266.266 0 0 1-.136-.133l-.02-.068c-.042-.08-.063-.085-.145-.12-.133-.057-.168-.123-.229-.25-.035-.07-.06-.07-.133-.097a.333.333 0 0 1-.19-.19c-.06-.123-.115-.15-.242-.2-.088-.052-.116-.134-.16-.222-.05-.081-.116-.102-.203-.138a.427.427 0 0 1-.139-.238l-.03-.09c-.066-.032-.066-.032-.14-.055-.142-.124-.153-.292-.185-.466a38.264 38.264 0 0 0-.033-.177l-.014-.08a.457.457 0 0 0-.106-.18.975.975 0 0 1 .032-.657c.077-.167.114-.347.15-.525.037-.177.071-.287.225-.398a.506.506 0 0 0 .142-.183c.077-.143.16-.207.308-.282a.495.495 0 0 0 .179-.157c.124-.149.292-.161.478-.196l.056-.01.162-.03a.708.708 0 0 0 .237-.104c.202-.072.409-.068.619-.028l.142.083c.105.052.222.065.338.083.31.051.31.051.448.135l.05.079c.067.091.099.107.201.15.135.06.18.116.247.24.054.076.124.096.209.13.093.053.12.13.165.222l.028.054c.094-.183.06-.45.06-.65v-.105l.001-.286v-.31l.002-.536.001-.776c.002-.42.002-.84.003-1.261v-.076l.002-1.07v-.152a1825.548 1825.548 0 0 1 .006-2.56v-.307l.002-.332v-.097c.003-.522.003-.522.176-.724l.07-.061a.46.46 0 0 0 .12-.21c.053-.144.126-.191.259-.266.08-.052.105-.116.142-.201a.674.674 0 0 1 .251-.132.388.388 0 0 0 .213-.143c.142-.163.366-.168.574-.185 1.17-.071 1.17-.071 1.493.159Zm-1.26 1.513c-.03.04-.057.083-.083.126a.346.346 0 0 1-.167.138c-.1.045-.1.045-.113.13-.008.09-.012.18-.012.27v.361l-.001.353v.381l-.002.66-.001.957c-.002.517-.002 1.035-.003 1.552v.094l-.002 1.319v.187a2766.391 2766.391 0 0 1-.006 3.153v.377a138.477 138.477 0 0 1-.002.47c.002.635.002.635-.148.838-.07.039-.133.07-.206.1l-.055.025c-.156.067-.303.129-.476.13h-.071c-.08-.012-.093-.037-.148-.091-.092-.036-.184-.066-.278-.096a.434.434 0 0 1-.2-.178c-.095-.122-.095-.122-.225-.201-.09-.047-.104-.067-.152-.15a.408.408 0 0 0-.186-.182c-.113-.06-.155-.128-.217-.236a.284.284 0 0 0-.134-.106.324.324 0 0 1-.167-.162.4.4 0 0 0-.185-.18c-.113-.06-.154-.126-.215-.234-.056-.077-.128-.11-.211-.154a.307.307 0 0 1-.114-.136c-.04-.092-.04-.092-.111-.123-.242-.067-.517-.033-.755.033a49.79 49.79 0 0 0-.056.19l-.016.055c-.022.1-.016.2-.013.301v.06c.003.083.012.143.072.203.096.071.096.071.21.093l.019.073c.05.126.124.2.246.263a.48.48 0 0 1 .151.15.97.97 0 0 0 .264.24c.05.04.05.04.105.12.07.101.153.156.252.228.06.047.06.047.117.132.056.08.083.1.166.144a.53.53 0 0 1 .22.24c.055.08.116.115.203.16h.057l.019.058a.577.577 0 0 0 .246.28.455.455 0 0 1 .153.152c.057.078.1.125.188.166.096.054.113.07.164.159.068.119.157.182.269.26.075.06.117.132.17.21.063.05.129.097.194.144.075.06.118.133.172.212.056.043.114.082.172.123.053.04.053.04.107.123.059.083.096.11.183.16a.467.467 0 0 1 .199.198c.065.118.14.142.265.187.068.034.082.058.113.125.032.067.047.09.118.123l.071.024c.122.04.185.086.271.179.122.13.244.178.415.23.11.042.169.1.232.197.058.065.089.072.174.087l.075.015.08.014c.21.043.375.089.544.223.213.121.482.105.72.104H436.334c.737.046.737.046 1.398-.186.149-.095.346-.107.519-.138a.75.75 0 0 0 .423-.212c.092-.086.203-.122.321-.165.102-.049.132-.081.177-.181v-.055l.062-.022c.133-.055.212-.095.285-.219a.503.503 0 0 1 .191-.193c.121-.08.141-.158.174-.293.035-.116.112-.188.205-.267.05-.056.062-.1.08-.171l.022-.08.047-.206c.048-.22.103-.41.22-.607.073-.151.069-.317.068-.48v-.272l.001-.149v-1.542l.001-.823.001-.707V466.208a.94.94 0 0 0-.063-.348c-.08-.05-.08-.05-.169-.082-.08-.062-.103-.127-.14-.22-.08-.038-.15-.03-.24-.03h-.098c-.082-.002-.082-.002-.14.03l-.037.078a.423.423 0 0 1-.273.224c-.042.127-.062.254-.082.386-.042.243-.145.387-.34.543-.225.128-.522.107-.775.073-.168-.05-.303-.185-.406-.319-.11-.206-.098-.425-.1-.653.011-.364.011-.364-.069-.714a.877.877 0 0 0-.169-.103c-.092-.056-.122-.131-.168-.225-.258-.034-.258-.034-.488.05-.049.065-.049.065-.086.132-.045.064-.045.064-.13.11-.139.106-.128.256-.147.42-.04.266-.2.416-.415.573-.128.042-.254.034-.388.034l-.084.002a.718.718 0 0 1-.54-.2l-.028-.055h-.057a1.39 1.39 0 0 1-.102-.498l-.004-.07a28.025 28.025 0 0 1-.016-.437l-.005-.135a.646.646 0 0 0-.07-.309c-.05-.038-.05-.038-.108-.065-.125-.069-.169-.139-.229-.263l-.193-.002h-.109c-.089-.004-.089-.004-.148.03-.063.103-.063.103-.084.218a3.79 3.79 0 0 1-.225.082c-.112.218-.065.54-.068.781-.007.492-.007.492-.16.69-.02.02-.042.039-.064.059l-.064.06c-.159.122-.317.116-.51.116-.028 0-.055 0-.083.002a.734.734 0 0 1-.527-.179l-.054-.06-.055-.058c-.112-.17-.11-.364-.11-.56v-.081l-.001-.265-.001-.191-.001-.41-.002-.594-.002-.964v-.116l-.003-.818v-.058l-.003-.96-.002-.645v-.401l-.001-.186v-.328c-.001-.13-.007-.256-.033-.385-.046-.043-.046-.043-.107-.066-.119-.062-.159-.124-.208-.243-.02-.052-.02-.052-.079-.073a3.33 3.33 0 0 0-.18-.007l-.099-.002c-.085.001-.085.001-.137.045Z"/><path d="m433.294 451.477.036.042c.075.062.162.067.256.081l.122.02c.03.006.03.006.061.01.47.08.47.08.65.23l.028.054c.05.02.05.02.112.035l.07.019.073.02c.183.053.314.097.446.235.082.066.176.095.275.129.148.052.235.093.312.23.06.076.152.092.243.123a.837.837 0 0 1 .297.221v.055l.056.019c.194.082.315.169.434.339a.478.478 0 0 0 .159.12c.111.061.154.129.216.236a.35.35 0 0 0 .13.115c.142.088.222.232.299.374v.055l.05.021c.166.09.25.274.309.441.033.065.033.065.117.107.105.072.131.144.17.258a.931.931 0 0 0 .24.381c.074.087.096.188.126.296a.975.975 0 0 0 .185.388c.143.16.169.357.197.56.026.187.055.338.167.496.3.458.187 1.253.186 1.768v.288a21.679 21.679 0 0 1-.014.922.613.613 0 0 1-.102.335c-.068.058-.068.058-.14.11a1.529 1.529 0 0 0-.18.194c-.102.11-.192.13-.341.143-.294.003-.508-.023-.73-.221-.273-.29-.225-.715-.21-1.084l.012-.201c.053-.731.053-.731-.148-1.42-.12-.222-.14-.483-.17-.728-.033-.248-.072-.416-.258-.593a1.284 1.284 0 0 1-.078-.22 1.897 1.897 0 0 1-.076-.298c-.024-.092-.103-.116-.184-.166a.757.757 0 0 1-.12-.243c-.04-.112-.105-.171-.193-.251a.85.85 0 0 1-.25-.463 6.396 6.396 0 0 1-.061-.005c-.107-.03-.15-.075-.22-.159l-.024-.1-.032-.091c-.094-.033-.094-.033-.197-.055-.086-.068-.132-.11-.163-.214l-.006-.06-.046-.01a1.04 1.04 0 0 1-.46-.263l-.028-.082c-.064-.032-.064-.032-.14-.055a12.19 12.19 0 0 1-.143-.048l-.071-.023c-.068-.038-.068-.038-.115-.118-.094-.121-.198-.136-.345-.171-.38-.097-.38-.097-.464-.216-.062-.075-.115-.078-.21-.095l-.107-.02a7.553 7.553 0 0 0-.259-.038c-.297-.04-.578-.079-.841-.23-.175-.072-.388-.057-.574-.057h-.253l-.259-.001h-.167l-.077-.001c-.212 0-.445.007-.633.113-.244.13-.553.164-.826.196-.296.034-.296.034-.539.188-.116.1-.235.13-.384.163l-.073.017c-.173.04-.173.04-.242.04l-.02.062c-.068.14-.175.186-.319.238a.467.467 0 0 0-.251.193.874.874 0 0 1-.364.191l-.086.027c-.032.078-.032.078-.057.164a.591.591 0 0 1-.244.161c-.085.04-.093.09-.125.173-.043.088-.112.13-.193.186l-.084.027c-.028.05-.028.05-.05.11-.068.16-.171.304-.304.421-.054.058-.076.119-.105.19a.565.565 0 0 1-.245.291h-.056l-.007.101c-.03.252-.085.488-.286.66-.118.158-.115.399-.14.587-.068.496-.068.496-.2.68a.73.73 0 0 0-.075.3l-.007.067c-.029.323-.02.647-.016.97l.003.384.002.087c.001.235 0 .494-.174.676-.065.02-.13.038-.197.054-.033.052-.033.052-.056.11-.1.103-.185.127-.326.135-.296.005-.296.005-.414-.087-.076-.075-.076-.075-.128-.144a.5.5 0 0 0-.174-.131.33.33 0 0 1-.18-.231c-.057-.237-.048-.48-.048-.721v-.122l-.001-.253v-.256c-.004-.81-.004-.81.027-1.212l.005-.076c.022-.246.091-.458.255-.648.025-.08.025-.08.035-.166l.016-.097.03-.198c.035-.213.091-.355.228-.524a.9.9 0 0 0 .135-.323c.046-.162.1-.299.23-.415h.057l.015-.047c.133-.394.133-.394.238-.472l.057-.023c.06-.027.06-.027.076-.082l.013-.06c.044-.145.13-.228.237-.336a1.71 1.71 0 0 0 .181-.245.872.872 0 0 1 .285-.282.437.437 0 0 0 .121-.15c.063-.108.13-.149.24-.208a.452.452 0 0 0 .135-.142c.086-.123.194-.183.324-.257a.763.763 0 0 0 .172-.146c.102-.109.223-.144.362-.195.1-.046.136-.106.188-.199a.724.724 0 0 1 .204-.104.85.85 0 0 0 .33-.184c.12-.11.237-.14.394-.176a.814.814 0 0 0 .37-.178c.181-.145.398-.16.623-.191.176-.025.291-.057.441-.151.72-.406 3.318-.442 4.022 0Z"/><path d="M430.79 454.097h.348l.24-.001c1.244-.006 1.244-.006 1.498.225.106.071.202.084.326.105.217.041.402.096.55.264.091.077.214.102.326.14.11.047.177.097.228.205.038.069.076.078.151.104.115.045.175.09.243.193.05.087.05.087.137.12a.44.44 0 0 1 .225.237c.031.061.031.061.113.104.117.078.18.164.225.294.044.091.114.12.2.175.091.108.112.236.142.37.033.084.058.086.14.122.105.104.141.21.173.35l.014.056c.024.097.04.19.048.288l.017.099c.053.037.053.037.113.055.212.32.18.735.179 1.103a23.964 23.964 0 0 0 .002.402l.002.073a.705.705 0 0 1-.232.536 8.688 8.688 0 0 1-.053.052c-.168.12-.34.144-.545.14l-.064.002a.77.77 0 0 1-.488-.149l-.061-.06-.063-.061c-.15-.189-.155-.371-.17-.604-.021-.28-.044-.516-.2-.759-.095-.165-.119-.368-.155-.552-.032-.172-.032-.172-.15-.298l-.083-.044c-.047-.077-.047-.077-.083-.16a.673.673 0 0 0-.233-.293 1.053 1.053 0 0 1-.15-.15 1.805 1.805 0 0 0-.266-.245l-.049-.054c-.083-.072-.174-.108-.276-.15-.068-.042-.068-.042-.112-.123-.108-.13-.246-.136-.41-.167a1.96 1.96 0 0 1-.58-.184c-.369-.191-.964-.163-1.357-.06-.087.05-.087.05-.169.11a2.387 2.387 0 0 1-.468.134l-.068.013-.135.023c-.118.022-.16.03-.233.129l-.052.083c-.079.045-.079.045-.165.08a.685.685 0 0 0-.301.227c-.046.056-.098.1-.154.146-.097.08-.173.162-.252.258l-.07.062a.918.918 0 0 0-.172.285c-.04.063-.04.063-.11.1-.083.054-.095.097-.116.19l-.012.057-.027.118-.014.06a3.975 3.975 0 0 1-.091.327c-.03.074-.062.127-.106.194-.1.171-.102.357-.115.55-.041.568-.041.568-.24.759l-.062.06c-.176.129-.352.15-.568.147h-.07a.688.688 0 0 1-.471-.156 8.694 8.694 0 0 1-.143-.14c-.122-.143-.128-.279-.135-.458l-.004-.075a8.566 8.566 0 0 1 .004-.619l.003-.087c.024-.546.024-.546.157-.745l.054-.041c.089-.104.102-.222.128-.352.046-.22.09-.36.252-.525.074-.083.102-.172.139-.275.06-.163.06-.163.122-.213l.052-.023c.107-.053.111-.063.15-.165.05-.13.122-.191.23-.276.072-.06.116-.132.166-.208.046-.038.093-.074.14-.11l.068-.065c.23-.224.23-.224.36-.261.1-.037.116-.085.162-.175.06-.092.163-.115.264-.15l.072-.025.066-.022a.715.715 0 0 0 .18-.135c.13-.113.25-.139.418-.166.192-.033.32-.072.472-.194a.473.473 0 0 1 .186-.086l.063-.018c.25-.046.501-.047.755-.047Z"/></g></g></g></g></svg>