<svg width="44" height="44" xmlns="http://www.w3.org/2000/svg" xmlns:xlink="http://www.w3.org/1999/xlink" overflow="hidden"><defs><clipPath id="clip0"><rect x="722" y="264" width="44" height="44"/></clipPath></defs><g clip-path="url(#clip0)" transform="translate(-722 -264)"><path d="M743.475 294.924C746.102 294.924 748.326 294.014 750.145 292.195 751.964 290.376 752.873 288.153 752.873 285.525 752.873 282.898 751.964 280.675 750.145 278.856 748.326 277.036 746.102 276.127 743.475 276.127 740.847 276.127 738.624 277.036 736.805 278.856 734.986 280.675 734.076 282.898 734.076 285.525 734.076 288.153 734.986 290.376 736.805 292.195 738.624 294.014 740.847 294.924 743.475 294.924ZM743.482 307C740.513 307 737.723 306.443 735.113 305.328 732.503 304.214 730.222 302.681 728.27 300.73 726.319 298.778 724.786 296.5 723.672 293.894 722.557 291.289 722 288.501 722 285.532 722 282.53 722.557 279.723 723.672 277.113 724.786 274.503 726.316 272.229 728.263 270.293 730.209 268.357 732.486 266.824 735.094 265.694 737.702 264.565 740.492 264 743.464 264 746.469 264 749.279 264.563 751.893 265.69 754.507 266.817 756.781 268.347 758.715 270.279 760.649 272.21 762.18 274.482 763.308 277.094 764.436 279.705 765 282.516 765 285.525 765 288.499 764.435 291.291 763.306 293.9 762.176 296.51 760.643 298.788 758.707 300.736 756.771 302.683 754.5 304.214 751.894 305.328 749.289 306.443 746.484 307 743.482 307ZM743.475 302.25C748.123 302.25 752.073 300.627 755.324 297.381 758.575 294.134 760.2 290.183 760.2 285.525 760.2 280.877 758.575 276.927 755.324 273.676 752.073 270.426 748.115 268.8 743.45 268.8 738.818 268.8 734.876 270.426 731.626 273.676 728.375 276.927 726.75 280.885 726.75 285.551 726.75 290.182 728.373 294.124 731.619 297.374 734.866 300.625 738.818 302.25 743.475 302.25Z" fill="#0D47A1" fill-rule="evenodd"/></g></svg>