<svg width="43" height="44" xmlns="http://www.w3.org/2000/svg" xmlns:xlink="http://www.w3.org/1999/xlink" overflow="hidden"><defs><clipPath id="clip0"><rect x="796" y="260" width="43" height="44"/></clipPath></defs><g clip-path="url(#clip0)" transform="translate(-796 -260)"><path d="M817.482 303C814.513 303 811.723 302.443 809.113 301.328 806.503 300.214 804.222 298.681 802.27 296.73 800.319 294.778 798.786 292.5 797.672 289.894 796.557 287.289 796 284.501 796 281.532 796 278.53 796.557 275.723 797.672 273.113 798.786 270.503 800.316 268.229 802.263 266.293 804.209 264.357 806.486 262.824 809.094 261.694 811.702 260.565 814.492 260 817.464 260 820.469 260 823.279 260.563 825.893 261.69 828.507 262.817 830.781 264.347 832.715 266.279 834.649 268.21 836.18 270.482 837.308 273.094 838.436 275.705 839 278.516 839 281.525 839 284.499 838.435 287.291 837.306 289.9 836.176 292.51 834.643 294.788 832.707 296.736 830.771 298.683 828.5 300.214 825.894 301.328 823.289 302.443 820.484 303 817.482 303ZM817.475 298.25C822.123 298.25 826.073 296.627 829.324 293.381 832.575 290.134 834.2 286.183 834.2 281.525 834.2 276.877 832.575 272.927 829.324 269.676 826.073 266.426 822.115 264.8 817.45 264.8 812.818 264.8 808.876 266.426 805.626 269.676 802.375 272.927 800.75 276.885 800.75 281.551 800.75 286.182 802.373 290.124 805.619 293.374 808.866 296.625 812.818 298.25 817.475 298.25Z" fill-rule="evenodd"/></g></svg>